<?xml version="1.0" encoding="UTF-8"?>
<!DOCTYPE svg PUBLIC "-//W3C//DTD SVG 1.1//EN" "http://www.w3.org/Graphics/SVG/1.1/DTD/svg11.dtd">
<!-- Creator: CorelDRAW -->
<svg xmlns="http://www.w3.org/2000/svg" xml:space="preserve" width="110.1mm" height="38.1467mm" style="shape-rendering:geometricPrecision; text-rendering:geometricPrecision; image-rendering:optimizeQuality; fill-rule:evenodd; clip-rule:evenodd"
viewBox="0 0 81.6577 28.2922"
 xmlns:xlink="http://www.w3.org/1999/xlink">
 <defs>
  <style type="text/css">
   <![CDATA[
    .fil0 {fill:#F08683}
    .fil2 {fill:#FFF383}
    .fil1 {fill:url(#id0)}
    .fil3 {fill:url(#id1)}
   ]]>
  </style>
  <radialGradient id="id0" gradientUnits="userSpaceOnUse" cx="40.8289" cy="26.5348" r="40.8289" fx="40.8289" fy="26.5348">
   <stop offset="0" style="stop-color:#FFFBDB"/>
   <stop offset="1" style="stop-color:#EF7F1A"/>
  </radialGradient>
  <radialGradient id="id1" gradientUnits="userSpaceOnUse" cx="40.6248" cy="27.912" r="6.46461" fx="40.6248" fy="27.912">
   <stop offset="0" style="stop-color:#FEFEFE"/>
   <stop offset="1" style="stop-color:#F08143"/>
  </radialGradient>
 </defs>
 <g id="Слой_x0020_1">
  <metadata id="CorelCorpID_0Corel-Layer"/>
  <polygon class="fil0" points="-0,28.2922 -0,0 81.6577,0 81.6577,28.2922 "/>
  <path class="fil1" d="M-0 17.467l34.221 8.79968c-0.0399018,0.289325 -0.0608168,0.584583 -0.0608168,0.884588 0,0.264034 0.0161684,0.524137 0.0472443,0.780087l-34.2074 -1.22501 0 -9.23934zm0 -5.63342l0 -11.8335 2.14995 0 32.8606 23.9518c-0.292737,0.511158 -0.517537,1.06578 -0.662236,1.6514l-34.3483 -13.7696zm9.02945 -11.8335l9.55878 0 17.8878 22.2001c-0.4295,0.360599 -0.811757,0.77586 -1.13587,1.2348l-26.3107 -23.4349zm15.056 0l8.45881 0 6.52817 20.8758c-0.731434,0.181412 -1.41436,0.48787 -2.02461,0.895268l-12.9624 -21.7711zm12.9935 0l7.19367 0 -2.19126 20.8525c-0.468438,-0.108654 -0.955937,-0.165837 -1.45664,-0.165837 -0.262699,0 -0.521912,0.01602 -0.776601,0.0467993l-2.76917 -20.7334zm11.8084 0l8.06328 0 -12.2452 22.1439c-0.542531,-0.443221 -1.15797,-0.800112 -1.82502,-1.04991l6.00692 -21.094zm13.4163 0l10.2678 0 -26.3249 23.9664c-0.282502,-0.496102 -0.628564,-0.951264 -1.02714,-1.35473l17.0843 -22.6116zm17.0659 0l2.28805 0 0 11.5373 -34.7318 14.17c-0.111399,-0.484606 -0.277384,-0.948446 -0.491207,-1.38507l32.9349 -24.3222zm2.28805 16.9549l0 10.1514 -34.6088 0.762955c0.0262551,-0.235925 0.0403468,-0.475336 0.0403468,-0.718084 0,-0.251797 -0.0150559,-0.500181 -0.0433135,-0.744636l34.6118 -9.45168z"/>
  <path class="fil2" d="M50.069 28.2922c-0.392417,-0.424828 -2.11509,-1.28005 -2.44469,-1.38989 0.869088,-0.289696 2.52449,-0.620777 2.52449,-1.77956 -0.869088,0.124155 -2.2348,0.662162 -2.73142,-0.372466 0.703547,-0.786317 1.73818,-0.786317 1.73818,-2.02787l-2.69003 0.372466c0,-0.372466 1.9451,-2.93834 0.579392,-2.93834 0,1.36571 -1.07601,1.6554 -1.90372,1.24155 0.869088,-0.951858 0.869088,-1.73818 0.124155,-2.73142 -0.538007,1.07601 -1.61402,1.57263 -2.44172,1.32432 0,-0.206926 -0.869088,-2.11064 -0.124155,-2.11064 -0.786317,0 -1.57263,0.0827702 -1.90372,0.786317 -0.0413851,0.124155 -0.248311,1.20017 0.0413851,1.20017 -1.07601,-0.579392 -1.44848,-1.20017 -1.44848,-2.35895 -0.662162,0.289696 -1.36571,2.06926 -0.744932,2.69003 -0.827702,-1.24155 -1.32432,-1.24155 -2.7728,-1.24155 0.413851,0.620777 1.03463,1.6554 1.03463,2.06926 -1.07601,0.16554 -2.52449,-0.124155 -2.52449,-1.36571 0,1.73818 0.455236,1.77956 1.03463,2.97973 -0.372466,0.538007 -2.7728,0.703547 -3.22804,0.248311 0.413851,0.413851 1.57263,1.82095 2.06926,1.82095 0,0.827702 -2.15203,1.32432 -2.81419,0.993243 0.289696,0.496621 0.620777,0.786317 0.993243,1.15878 0.331081,0.331081 1.07601,0.124155 1.40709,0.455236 -0.139285,0.529255 -0.747157,0.833636 -1.34427,0.976036l17.5702 0z"/>
  <path class="fil3" d="M34.2614 28.2922l12.727 0c0.0664535,-0.370538 0.100941,-0.75183 0.100941,-1.14098 0,-3.5606 -2.904,-6.46461 -6.46453,-6.46461 -3.5606,0 -6.46461,2.904 -6.46461,6.46461 0,0.389154 0.0347843,0.770446 0.101238,1.14098z"/>
 </g>
</svg>
